<svg xmlns="http://www.w3.org/2000/svg" viewBox="0 0 1024 1024" width="1024" height="1024">
  <rect width="1024" height="1024" fill="#F06858"/>

  <g transform="translate(202, 220)">
    <!-- Waveform bars - visual center adjusted -->
    <rect x="0" y="142" width="40" height="152" rx="20" fill="#FFFFFF"/>
    <rect x="62" y="62" width="40" height="312" rx="20" fill="#FFFFFF"/>
    <rect x="124" y="0" width="40" height="436" rx="20" fill="#FFFFFF"/>
    <rect x="186" y="42" width="40" height="352" rx="20" fill="#FFFFFF"/>
    <rect x="248" y="102" width="40" height="232" rx="20" fill="#FFFFFF"/>

    <!-- Text lines - justified, vertically centered with waveform -->
    <rect x="320" y="42" width="300" height="24" rx="12" fill="#FFFFFF"/>
    <rect x="320" y="102" width="300" height="24" rx="12" fill="#FFFFFF"/>
    <rect x="320" y="162" width="300" height="24" rx="12" fill="#FFFFFF"/>
    <rect x="320" y="222" width="300" height="24" rx="12" fill="#FFFFFF"/>
    <rect x="320" y="282" width="300" height="24" rx="12" fill="#FFFFFF"/>
    <rect x="320" y="342" width="300" height="24" rx="12" fill="#FFFFFF"/>
    <rect x="320" y="402" width="190" height="24" rx="12" fill="#FFFFFF"/>
  </g>
</svg>
