<svg xmlns="http://www.w3.org/2000/svg" viewBox="0 0 1024 1024" width="1024" height="1024">
  <!-- Coral background -->
  <rect width="1024" height="1024" fill="#F06858"/>

  <g transform="translate(72, 148) scale(1.5)">
    <!-- Waveform bars -->
    <rect x="42" y="248" width="36" height="152" rx="18" fill="#FFFFFF"/>
    <rect x="98" y="178" width="36" height="292" rx="18" fill="#FFFFFF"/>
    <rect x="154" y="118" width="36" height="412" rx="18" fill="#FFFFFF"/>
    <rect x="210" y="158" width="36" height="332" rx="18" fill="#FFFFFF"/>
    <rect x="266" y="198" width="36" height="252" rx="18" fill="#FFFFFF"/>

    <!-- Text lines - justified, tight to waveform -->
    <rect x="330" y="168" width="260" height="22" rx="11" fill="#FFFFFF"/>
    <rect x="330" y="226" width="260" height="22" rx="11" fill="#FFFFFF"/>
    <rect x="330" y="284" width="260" height="22" rx="11" fill="#FFFFFF"/>
    <rect x="330" y="342" width="260" height="22" rx="11" fill="#FFFFFF"/>
    <rect x="330" y="400" width="260" height="22" rx="11" fill="#FFFFFF"/>
    <rect x="330" y="458" width="170" height="22" rx="11" fill="#FFFFFF"/>
  </g>
</svg>
